<svg version="1.1" width="223" height="193" viewBox="-1 -1 223 193" xmlns="http://www.w3.org/2000/svg" xmlns:xlink="http://www.w3.org/1999/xlink">
  <!-- Exported by Scratch - http://scratch.mit.edu/ -->
  <path id="ID0.4013050044886768" fill="#D57E60" stroke="#975641" stroke-width="8" stroke-linecap="round" d="M 215.500 173 C 226.874 172.701 239.383 172.711 249.250 178.350 C 256.156 182.480 259.892 191.575 261 199.500 C 263.008 213.868 265.782 237.906 258 243 C 251.620 247.153 244.734 221.856 234 217 C 223.481 212.250 210.556 213.041 200 217 C 189.014 220.457 179.880 241.976 173 238 C 165.207 233.486 168.068 212.218 170 199.500 C 171.135 192.027 175.033 183.722 181.500 179.850 C 191.543 174.106 204.040 173.300 215.500 173 Z " transform="matrix(1, 0, 0, 1, -163.75, -168)"/>
  <g id="ID0.7592954114079475">
    <path id="ID0.3893512673676014" fill="#975641" stroke="none" d="M 242 190.150 C 242.759 190.150 243.446 190.458 243.944 190.956 C 244.442 191.454 244.750 192.141 244.750 192.900 C 244.750 193.659 244.442 194.346 243.944 194.844 C 243.446 195.342 242.759 195.650 242 195.650 C 241.241 195.650 240.554 195.342 240.056 194.844 C 239.558 194.346 239.250 193.659 239.250 192.900 C 239.250 192.141 239.558 191.454 240.056 190.956 C 240.554 190.458 241.241 190.150 242 190.150 Z " transform="matrix(1, 0, 0, 1, -162.25, -173.75)"/>
    <path id="ID0.3893512673676014" fill="#975641" stroke="none" d="M 242 190.150 C 242.759 190.150 243.446 190.458 243.944 190.956 C 244.442 191.454 244.750 192.141 244.750 192.900 C 244.750 193.659 244.442 194.346 243.944 194.844 C 243.446 195.342 242.759 195.650 242 195.650 C 241.241 195.650 240.554 195.342 240.056 194.844 C 239.558 194.346 239.250 193.659 239.250 192.900 C 239.250 192.141 239.558 191.454 240.056 190.956 C 240.554 190.458 241.241 190.150 242 190.150 Z " transform="matrix(1, 0, 0, 1, -168.5, -167.85)"/>
    <path id="ID0.3893512673676014" fill="#975641" stroke="none" d="M 242 190.150 C 242.759 190.150 243.446 190.458 243.944 190.956 C 244.442 191.454 244.750 192.141 244.750 192.900 C 244.750 193.659 244.442 194.346 243.944 194.844 C 243.446 195.342 242.759 195.650 242 195.650 C 241.241 195.650 240.554 195.342 240.056 194.844 C 239.558 194.346 239.250 193.659 239.250 192.900 C 239.250 192.141 239.558 191.454 240.056 190.956 C 240.554 190.458 241.241 190.150 242 190.150 Z " transform="matrix(1, 0, 0, 1, -162.75, -162.25)"/>
    <path id="ID0.3893512673676014" fill="#975641" stroke="none" d="M 242 190.150 C 242.759 190.150 243.446 190.458 243.944 190.956 C 244.442 191.454 244.750 192.141 244.750 192.900 C 244.750 193.659 244.442 194.346 243.944 194.844 C 243.446 195.342 242.759 195.650 242 195.650 C 241.241 195.650 240.554 195.342 240.056 194.844 C 239.558 194.346 239.250 193.659 239.250 192.900 C 239.250 192.141 239.558 191.454 240.056 190.956 C 240.554 190.458 241.241 190.150 242 190.150 Z " transform="matrix(1, 0, 0, 1, -156.75, -167.6)"/>
  </g>
  <g id="ID0.5537937725894153">
    <path id="ID0.2739670635201037" fill="none" stroke="#975641" stroke-width="2" d="M 228.125 196.400 C 229.953 196.400 231.609 197.142 232.808 198.342 C 234.008 199.541 234.750 201.197 234.750 203.025 C 234.750 204.853 234.008 206.509 232.808 207.708 C 231.609 208.908 229.953 209.650 228.125 209.650 C 226.297 209.650 224.641 208.908 223.442 207.708 C 222.242 206.509 221.500 204.853 221.500 203.025 C 221.500 201.197 222.242 199.541 223.442 198.342 C 224.641 197.142 226.297 196.400 228.125 196.400 Z " transform="matrix(1, 0, 0, 1, -162.25, -168.25)"/>
    <path id="ID0.1786083928309381" fill="#975641" stroke="none" d="M 228.375 199.150 C 229.858 199.150 231.202 199.752 232.175 200.725 C 233.148 201.698 233.750 203.042 233.750 204.525 C 233.750 206.008 233.148 207.352 232.175 208.325 C 231.202 209.298 229.858 209.900 228.375 209.900 C 226.892 209.900 225.548 209.298 224.575 208.325 C 223.602 207.352 223 206.008 223 204.525 C 223 203.042 223.602 201.698 224.575 200.725 C 225.548 199.752 226.892 199.150 228.375 199.150 Z " transform="matrix(0.6976743936538696, 0, 0, 0.6976743936538696, -93.5, -107.85)"/>
  </g>
  <g id="ID0.08481824863702059">
    <path id="ID0.9470026795752347" fill="#975641" stroke="none" stroke-linecap="round" d="M 195.019 200.085 C 195.924 198.951 198.140 199.082 198.731 200.085 C 199.655 204.283 199.389 206.045 198.731 208.215 C 196.609 209.760 195.434 209.229 195.019 208.215 C 194.132 204.849 194.007 201.995 195.019 200.085 Z " transform="matrix(1, 0, 0, 1.507614254951477, -163.5, -271.3)"/>
    <path id="ID0.9470026795752347" fill="#975641" stroke="none" stroke-linecap="round" d="M 195.019 200.085 C 195.924 198.951 198.140 199.082 198.731 200.085 C 199.655 204.283 199.389 206.045 198.731 208.215 C 196.609 209.760 195.434 209.229 195.019 208.215 C 194.132 204.849 194.007 201.995 195.019 200.085 Z " transform="matrix(-0.0023255751002579927, 0.9999973177909851, -1.5076102018356323, -0.0035060702357441187, 341.6, -159.5)"/>
  </g>
  <g id="ID0.5537937725894153">
    <path id="ID0.2739670635201037" fill="none" stroke="#975641" stroke-width="2" d="M 228.125 196.400 C 229.953 196.400 231.609 197.142 232.808 198.342 C 234.008 199.541 234.750 201.197 234.750 203.025 C 234.750 204.853 234.008 206.509 232.808 207.708 C 231.609 208.908 229.953 209.650 228.125 209.650 C 226.297 209.650 224.641 208.908 223.442 207.708 C 222.242 206.509 221.500 204.853 221.500 203.025 C 221.500 201.197 222.242 199.541 223.442 198.342 C 224.641 197.142 226.297 196.400 228.125 196.400 Z " transform="matrix(1, 0, 0, 1, -205.4, -178.9)"/>
    <path id="ID0.1786083928309381" fill="#975641" stroke="none" d="M 228.375 199.150 C 229.858 199.150 231.202 199.752 232.175 200.725 C 233.148 201.698 233.750 203.042 233.750 204.525 C 233.750 206.008 233.148 207.352 232.175 208.325 C 231.202 209.298 229.858 209.900 228.375 209.900 C 226.892 209.900 225.548 209.298 224.575 208.325 C 223.602 207.352 223 206.008 223 204.525 C 223 203.042 223.602 201.698 224.575 200.725 C 225.548 199.752 226.892 199.150 228.375 199.150 Z " transform="matrix(0.6976743936538696, 0, 0, 0.6976743936538696, -136.65, -118.5)"/>
  </g>
  <g id="ID0.33841887721791863" transform="matrix(1, 0, 0, 1, -164, -166)">
    <path id="ID0.8500699484720826" fill="none" stroke="#975641" stroke-width="1" d="M 212.500 182 C 214.224 182 215.787 182.700 216.918 183.832 C 218.050 184.963 218.750 186.526 218.750 188.250 C 218.750 189.974 218.050 191.537 216.918 192.668 C 215.787 193.800 214.224 194.500 212.500 194.500 C 210.776 194.500 209.213 193.800 208.082 192.668 C 206.950 191.537 206.250 189.974 206.250 188.250 C 206.250 186.526 206.950 184.963 208.082 183.832 C 209.213 182.700 210.776 182 212.500 182 Z " transform="matrix(1, 0, 0, 1, 2.5, -5.25)"/>
    <path id="ID0.8810166195034981" fill="#975641" stroke="none" d="M 224.500 182.900 C 225.121 182.900 225.683 183.026 226.091 183.230 C 226.498 183.433 226.750 183.715 226.750 184.025 C 226.750 184.335 226.498 184.617 226.091 184.820 C 225.683 185.024 225.121 185.150 224.500 185.150 C 223.879 185.150 223.317 185.024 222.909 184.820 C 222.502 184.617 222.250 184.335 222.250 184.025 C 222.250 183.715 222.502 183.433 222.909 183.230 C 223.317 183.026 223.879 182.900 224.500 182.900 Z " transform="matrix(1, 0, 0, 1, -5.75, 6.75)"/>
    <path id="ID0.8810166195034981" fill="#975641" stroke="none" d="M 224.500 182.900 C 225.121 182.900 225.683 183.026 226.091 183.230 C 226.498 183.433 226.750 183.715 226.750 184.025 C 226.750 184.335 226.498 184.617 226.091 184.820 C 225.683 185.024 225.121 185.150 224.500 185.150 C 223.879 185.150 223.317 185.024 222.909 184.820 C 222.502 184.617 222.250 184.335 222.250 184.025 C 222.250 183.715 222.502 183.433 222.909 183.230 C 223.317 183.026 223.879 182.900 224.500 182.900 Z " transform="matrix(1, 0, 0, 1, -13.75, 6.5)"/>
    <g id="ID0.19513672310858965" transform="matrix(0.5340407490730286, 0.4009023904800415, -0.4009023904800415, 0.5340407490730286, 209.7, 138.2)">
      <path id="ID0.8404476102441549" fill="none" stroke="#975641" stroke-width="3" d="M 247.125 194.500 C 248.815 194.500 250.346 195.186 251.455 196.295 C 252.564 197.404 253.250 198.935 253.250 200.625 C 253.250 202.315 252.564 203.846 251.455 204.955 C 250.346 206.064 248.815 206.750 247.125 206.750 C 245.435 206.750 243.904 206.064 242.795 204.955 C 241.686 203.846 241 202.315 241 200.625 C 241 198.935 241.686 197.404 242.795 196.295 C 243.904 195.186 245.435 194.500 247.125 194.500 Z " transform="matrix(0.32408130168914795, -0.2049679011106491, 0.2049679011106491, 0.32408130168914795, -79.05, 35.7)"/>
      <path id="ID0.9575125137344003" fill="none" stroke="#975641" stroke-width="3" d="M 256.250 191.750 C 257.285 191.750 258.222 192.170 258.901 192.849 C 259.580 193.528 260 194.465 260 195.500 C 260 196.535 259.580 197.472 258.901 198.151 C 258.222 198.830 257.285 199.250 256.250 199.250 C 255.215 199.250 254.278 198.830 253.599 198.151 C 252.920 197.472 252.500 196.535 252.500 195.500 C 252.500 194.465 252.920 193.528 253.599 192.849 C 254.278 192.170 255.215 191.750 256.250 191.750 Z " transform="matrix(0.32408130168914795, -0.2049679011106491, 0.2049679011106491, 0.32408130168914795, -79.05, 35.7)"/>
      <path id="ID0.6913043414242566" fill="none" stroke="#975641" stroke-width="3" d="M 257.250 200.250 C 258.147 200.250 258.959 200.614 259.547 201.203 C 260.136 201.791 260.500 202.603 260.500 203.500 C 260.500 204.397 260.136 205.209 259.547 205.797 C 258.959 206.386 258.147 206.750 257.250 206.750 C 256.353 206.750 255.541 206.386 254.953 205.797 C 254.364 205.209 254 204.397 254 203.500 C 254 202.603 254.364 201.791 254.953 201.203 C 255.541 200.614 256.353 200.250 257.250 200.250 Z " transform="matrix(0.32408130168914795, -0.2049679011106491, 0.2049679011106491, 0.32408130168914795, -79.05, 35.7)"/>
      <path id="ID0.7439798885025084" fill="none" stroke="#975641" stroke-width="3" d="M 253.125 206.250 C 254.056 206.250 254.900 206.628 255.511 207.239 C 256.122 207.850 256.500 208.694 256.500 209.625 C 256.500 210.556 256.122 211.400 255.511 212.011 C 254.900 212.622 254.056 213 253.125 213 C 252.194 213 251.350 212.622 250.739 212.011 C 250.128 211.400 249.750 210.556 249.750 209.625 C 249.750 208.694 250.128 207.850 250.739 207.239 C 251.350 206.628 252.194 206.250 253.125 206.250 Z " transform="matrix(0.32408130168914795, -0.2049679011106491, 0.2049679011106491, 0.32408130168914795, -79.05, 35.7)"/>
      <path id="ID0.08446947857737541" fill="none" stroke="#975641" stroke-width="3" d="M 260.250 207.500 C 261.216 207.500 262.091 207.892 262.724 208.526 C 263.358 209.159 263.750 210.034 263.750 211 C 263.750 211.966 263.358 212.841 262.724 213.474 C 262.091 214.108 261.216 214.500 260.250 214.500 C 259.284 214.500 258.409 214.108 257.776 213.474 C 257.142 212.841 256.750 211.966 256.750 211 C 256.750 210.034 257.142 209.159 257.776 208.526 C 258.409 207.892 259.284 207.500 260.250 207.500 Z " transform="matrix(0.32408130168914795, -0.2049679011106491, 0.2049679011106491, 0.32408130168914795, -79.05, 35.7)"/>
      <path id="ID0.9575125137344003" fill="none" stroke="#975641" stroke-width="3" d="M 256.250 191.750 C 257.285 191.750 258.222 192.170 258.901 192.849 C 259.580 193.528 260 194.465 260 195.500 C 260 196.535 259.580 197.472 258.901 198.151 C 258.222 198.830 257.285 199.250 256.250 199.250 C 255.215 199.250 254.278 198.830 253.599 198.151 C 252.920 197.472 252.500 196.535 252.500 195.500 C 252.500 194.465 252.920 193.528 253.599 192.849 C 254.278 192.170 255.215 191.750 256.250 191.750 Z " transform="matrix(-0.32408130168914795, 0.2049679011106491, -0.2049679011106491, -0.32408130168914795, 173.65, 59.9)"/>
      <path id="ID0.6913043414242566" fill="none" stroke="#975641" stroke-width="3" d="M 257.250 200.250 C 258.147 200.250 258.959 200.614 259.547 201.203 C 260.136 201.791 260.500 202.603 260.500 203.500 C 260.500 204.397 260.136 205.209 259.547 205.797 C 258.959 206.386 258.147 206.750 257.250 206.750 C 256.353 206.750 255.541 206.386 254.953 205.797 C 254.364 205.209 254 204.397 254 203.500 C 254 202.603 254.364 201.791 254.953 201.203 C 255.541 200.614 256.353 200.250 257.250 200.250 Z " transform="matrix(-0.32408130168914795, 0.2049679011106491, -0.2049679011106491, -0.32408130168914795, 173.5, 60.1)"/>
      <path id="ID0.7439798885025084" fill="none" stroke="#975641" stroke-width="3" d="M 253.125 206.250 C 254.056 206.250 254.900 206.628 255.511 207.239 C 256.122 207.850 256.500 208.694 256.500 209.625 C 256.500 210.556 256.122 211.400 255.511 212.011 C 254.900 212.622 254.056 213 253.125 213 C 252.194 213 251.350 212.622 250.739 212.011 C 250.128 211.400 249.750 210.556 249.750 209.625 C 249.750 208.694 250.128 207.850 250.739 207.239 C 251.350 206.628 252.194 206.250 253.125 206.250 Z " transform="matrix(-0.32408130168914795, 0.2049679011106491, -0.2049679011106491, -0.32408130168914795, 173.65, 59.9)"/>
      <path id="ID0.08446947857737541" fill="none" stroke="#975641" stroke-width="3" stroke-linecap="round" d="M 260.250 207.500 C 261.216 207.500 262.091 207.892 262.724 208.526 C 263.358 209.159 263.750 210.034 263.750 211 C 263.750 211.966 263.358 212.841 262.724 213.474 C 262.091 214.108 261.216 214.500 260.250 214.500 C 259.284 214.500 258.409 214.108 257.776 213.474 C 257.142 212.841 256.750 211.966 256.750 211 C 256.750 210.034 257.142 209.159 257.776 208.526 C 258.409 207.892 259.284 207.500 260.250 207.500 Z " transform="matrix(-0.32408130168914795, 0.2049679011106491, -0.2049679011106491, -0.32408130168914795, 173.65, 59.9)"/>
      <path id="ID0.953499608207494" fill="none" stroke="#975641" stroke-width="3" stroke-linecap="round" d="M 268 204.500 L 275.500 206.750 " transform="matrix(0.32408130168914795, -0.2049679011106491, 0.2049679011106491, 0.32408130168914795, -79.05, 35.7)"/>
      <path id="ID0.29333843383938074" fill="none" stroke="#975641" stroke-width="3" stroke-linecap="round" d="M 265.750 214.500 L 265.750 220.500 " transform="matrix(0.32408130168914795, -0.2049679011106491, 0.2049679011106491, 0.32408130168914795, -79.05, 35.7)"/>
      <path id="ID0.0002110726200044155" fill="none" stroke="#975641" stroke-width="3" d="M 247.750 198.750 C 248.164 198.750 248.539 198.918 248.810 199.190 C 249.082 199.461 249.250 199.836 249.250 200.250 C 249.250 200.664 249.082 201.039 248.810 201.310 C 248.539 201.582 248.164 201.750 247.750 201.750 C 247.336 201.750 246.961 201.582 246.690 201.310 C 246.418 201.039 246.250 200.664 246.250 200.250 C 246.250 199.836 246.418 199.461 246.690 199.190 C 246.961 198.918 247.336 198.750 247.750 198.750 Z " transform="matrix(0.16204065084457397, -0.10248395055532455, 0.10248395055532455, 0.16204065084457397, -19.45, 42.6)"/>
      <path id="ID0.07479762751609087" fill="none" stroke="#975641" stroke-width="3" d="M 246.375 190.250 C 246.754 190.250 247.098 190.432 247.347 190.726 C 247.596 191.020 247.750 191.427 247.750 191.875 C 247.750 192.323 247.596 192.730 247.347 193.024 C 247.098 193.318 246.754 193.500 246.375 193.500 C 245.996 193.500 245.652 193.318 245.403 193.024 C 245.154 192.730 245 192.323 245 191.875 C 245 191.427 245.154 191.020 245.403 190.726 C 245.652 190.432 245.996 190.250 246.375 190.250 Z " transform="matrix(0.32408130168914795, -0.2049679011106491, 0.2049679011106491, 0.32408130168914795, -79.05, 35.7)"/>
      <path id="ID0.8713422957807779" fill="none" stroke="#975641" stroke-width="3" stroke-linecap="round" d="M 251.750 213.500 L 251.500 220.250 " transform="matrix(0.32408130168914795, -0.2049679011106491, 0.2049679011106491, 0.32408130168914795, -79.05, 35.7)"/>
    </g>
  </g>
</svg>