<svg version="1.1" width="76" height="57" viewBox="-1 -1 76 57" xmlns="http://www.w3.org/2000/svg" xmlns:xlink="http://www.w3.org/1999/xlink">
  <!-- Exported by Scratch - http://scratch.mit.edu/ -->
  <path id="ID0.32396932365372777" fill="#FFFFFF" stroke="none" d="M 225.500 183 C 228.397 183 231.022 184.177 232.923 186.077 C 234.823 187.978 236 190.603 236 193.500 C 236 196.397 234.823 199.022 232.923 200.923 C 231.022 202.823 228.397 204 225.500 204 C 222.603 204 219.978 202.823 218.077 200.923 C 216.177 199.022 215 196.397 215 193.500 C 215 190.603 216.177 187.978 218.077 186.077 C 219.978 184.177 222.603 183 225.500 183 Z " transform="matrix(0.9988916516304016, -0.04706745594739914, 0.04706745594739914, 0.9988916516304016, -214.4, -170.85)"/>
  <path id="ID0.32396932365372777" fill="#FFFFFF" stroke="none" d="M 225.500 183 C 228.397 183 231.022 184.177 232.923 186.077 C 234.823 187.978 236 190.603 236 193.500 C 236 196.397 234.823 199.022 232.923 200.923 C 231.022 202.823 228.397 204 225.500 204 C 222.603 204 219.978 202.823 218.077 200.923 C 216.177 199.022 215 196.397 215 193.500 C 215 190.603 216.177 187.978 218.077 186.077 C 219.978 184.177 222.603 183 225.500 183 Z " transform="matrix(0.9988916516304016, -0.04706745594739914, 0.04706745594739914, 0.9988916516304016, -200.6, -170.45)"/>
  <path id="ID0.32396932365372777" fill="#FFFFFF" stroke="none" d="M 225.500 183 C 228.397 183 231.022 184.177 232.923 186.077 C 234.823 187.978 236 190.603 236 193.500 C 236 196.397 234.823 199.022 232.923 200.923 C 231.022 202.823 228.397 204 225.500 204 C 222.603 204 219.978 202.823 218.077 200.923 C 216.177 199.022 215 196.397 215 193.500 C 215 190.603 216.177 187.978 218.077 186.077 C 219.978 184.177 222.603 183 225.500 183 Z " transform="matrix(0.9988916516304016, -0.04706745594739914, 0.04706745594739914, 0.9988916516304016, -188, -170)"/>
  <path id="ID0.32396932365372777" fill="#FFFFFF" stroke="none" d="M 225.500 183 C 228.397 183 231.022 184.177 232.923 186.077 C 234.823 187.978 236 190.603 236 193.500 C 236 196.397 234.823 199.022 232.923 200.923 C 231.022 202.823 228.397 204 225.500 204 C 222.603 204 219.978 202.823 218.077 200.923 C 216.177 199.022 215 196.397 215 193.500 C 215 190.603 216.177 187.978 218.077 186.077 C 219.978 184.177 222.603 183 225.500 183 Z " transform="matrix(0.9988916516304016, -0.04706745594739914, 0.04706745594739914, 0.9988916516304016, -180.7, -153.35)"/>
  <path id="ID0.32396932365372777" fill="#FFFFFF" stroke="none" d="M 225.500 183 C 228.397 183 231.022 184.177 232.923 186.077 C 234.823 187.978 236 190.603 236 193.500 C 236 196.397 234.823 199.022 232.923 200.923 C 231.022 202.823 228.397 204 225.500 204 C 222.603 204 219.978 202.823 218.077 200.923 C 216.177 199.022 215 196.397 215 193.500 C 215 190.603 216.177 187.978 218.077 186.077 C 219.978 184.177 222.603 183 225.500 183 Z " transform="matrix(0.9988916516304016, -0.04706745594739914, 0.04706745594739914, 0.9988916516304016, -196.25, -154.1)"/>
  <path id="ID0.32396932365372777" fill="#FFFFFF" stroke="none" d="M 225.500 183 C 228.397 183 231.022 184.177 232.923 186.077 C 234.823 187.978 236 190.603 236 193.500 C 236 196.397 234.823 199.022 232.923 200.923 C 231.022 202.823 228.397 204 225.500 204 C 222.603 204 219.978 202.823 218.077 200.923 C 216.177 199.022 215 196.397 215 193.500 C 215 190.603 216.177 187.978 218.077 186.077 C 219.978 184.177 222.603 183 225.500 183 Z " transform="matrix(0.9988916516304016, -0.04706745594739914, 0.04706745594739914, 0.9988916516304016, -215.15, -154.2)"/>
  <path id="ID0.32396932365372777" fill="#FFFFFF" stroke="none" d="M 225.500 183 C 228.397 183 231.022 184.177 232.923 186.077 C 234.823 187.978 236 190.603 236 193.500 C 236 196.397 234.823 199.022 232.923 200.923 C 231.022 202.823 228.397 204 225.500 204 C 222.603 204 219.978 202.823 218.077 200.923 C 216.177 199.022 215 196.397 215 193.500 C 215 190.603 216.177 187.978 218.077 186.077 C 219.978 184.177 222.603 183 225.500 183 Z " transform="matrix(0.9988916516304016, -0.04706745594739914, 0.04706745594739914, 0.9988916516304016, -222.5, -160.85)"/>
  <path id="ID0.18981018383055925" fill="#FFC09A" stroke="none" d="M 272.300 196.900 C 275.003 196.903 278.181 196.959 280.200 198.750 C 282.355 200.664 283.500 203.702 283.500 206.750 C 283.500 209.795 282.239 212.666 280.203 214.703 C 278.166 216.739 275.354 218 272.250 218 C 269.146 218 266.334 216.739 264.297 214.703 C 262.261 212.666 261 209.854 261 206.750 C 261 203.646 262.141 200.687 264.297 198.797 C 266.368 196.982 269.564 196.919 272.300 196.900 Z " transform="matrix(0.4683692157268524, -0.022069407626986504, 0.03399316221475601, 0.7214217782020569, -70.5, -132.45)"/>
  <path id="ID0.32396932365372777" fill="#FFFFFF" stroke="none" d="M 225.500 183 C 228.397 183 231.022 184.177 232.923 186.077 C 234.823 187.978 236 190.603 236 193.500 C 236 196.397 234.823 199.022 232.923 200.923 C 231.022 202.823 228.397 204 225.500 204 C 222.603 204 219.978 202.823 218.077 200.923 C 216.177 199.022 215 196.397 215 193.500 C 215 190.603 216.177 187.978 218.077 186.077 C 219.978 184.177 222.603 183 225.500 183 Z " transform="matrix(0.9988916516304016, -0.04706745594739914, 0.04706745594739914, 0.9988916516304016, -180.75, -163.85)"/>
  <path id="ID0.18981018383055925" fill="#F8CBFF" stroke="none" d="M 271.950 196.550 C 274.858 196.494 278.153 196.915 280.203 198.797 C 282.314 200.737 283.500 203.646 283.500 206.750 C 283.500 209.854 282.239 212.666 280.203 214.703 C 278.166 216.739 275.354 218 272.250 218 C 269.146 218 266.334 216.739 264.297 214.703 C 262.261 212.666 261 209.854 261 206.750 C 261 203.646 262.192 200.745 264.297 198.797 C 266.323 196.924 269.341 196.494 271.950 196.550 Z " transform="matrix(0.29744774103164673, -0.014015641994774342, 0.021588074043393135, 0.4581541121006012, -21.3, -80.75)"/>
  <path id="ID0.18981018383055925" fill="#FFC09A" stroke="none" d="M 272.250 195.500 C 275.354 195.500 278.166 196.761 280.203 198.797 C 282.239 200.834 283.500 203.646 283.500 206.750 C 283.500 209.854 282.239 212.666 280.203 214.703 C 278.166 216.739 275.354 218 272.250 218 C 269.146 218 266.334 216.739 264.297 214.703 C 262.261 212.666 261 209.854 261 206.750 C 261 203.646 262.261 200.834 264.297 198.797 C 266.334 196.761 269.146 195.500 272.250 195.500 Z " transform="matrix(0.48053884506225586, 0.19259992241859436, -0.372030645608902, 0.9282203912734985, -37.05, -200.4)"/>
  <path id="ID0.18981018383055925" fill="#FFC09A" stroke="none" d="M 272.250 195.500 C 275.354 195.500 278.166 196.761 280.203 198.797 C 282.239 200.834 283.500 203.646 283.500 206.750 C 283.500 209.854 282.239 212.666 280.203 214.703 C 278.166 216.739 275.354 218 272.250 218 C 269.146 218 266.334 216.739 264.297 214.703 C 262.261 212.666 261 209.854 261 206.750 C 261 203.646 262.261 200.834 264.297 198.797 C 266.334 196.761 269.146 195.500 272.250 195.500 Z " transform="matrix(0.4701572060585022, -0.21671301126480103, 0.41860803961753845, 0.9081669449806213, -168.35, -83.85)"/>
  <path id="ID0.32396932365372777" fill="#FFFFFF" stroke="none" d="M 225.500 183 C 228.397 183 231.022 184.177 232.923 186.077 C 234.823 187.978 236 190.603 236 193.500 C 236 196.397 234.823 199.022 232.923 200.923 C 231.022 202.823 228.397 204 225.500 204 C 222.603 204 219.978 202.823 218.077 200.923 C 216.177 199.022 215 196.397 215 193.500 C 215 190.603 216.177 187.978 218.077 186.077 C 219.978 184.177 222.603 183 225.500 183 Z " transform="matrix(0.9988916516304016, -0.04706745594739914, 0.04706745594739914, 0.9988916516304016, -205.95, -159.7)"/>
  <path id="ID0.18981018383055925" fill="#FFC09A" stroke="none" d="M 272.250 195.500 C 275.354 195.500 278.166 196.761 280.203 198.797 C 282.239 200.834 283.500 203.646 283.500 206.750 C 283.500 209.854 282.239 212.666 280.203 214.703 C 278.166 216.739 275.354 218 272.250 218 C 269.146 218 266.334 216.739 264.297 214.703 C 262.261 212.666 261 209.854 261 206.750 C 261 203.646 262.261 200.834 264.297 198.797 C 266.334 196.761 269.146 195.500 272.250 195.500 Z " transform="matrix(0.9988916516304016, -0.04706745594739914, 0.04706745594739914, 0.9988916516304016, -217.65, -174.7)"/>
  <path id="ID0.32396932365372777" fill="#FFFFFF" stroke="none" d="M 225.500 183 C 228.397 183 231.022 184.177 232.923 186.077 C 234.823 187.978 236 190.603 236 193.500 C 236 196.397 234.823 199.022 232.923 200.923 C 231.022 202.823 228.397 204 225.500 204 C 222.603 204 219.978 202.823 218.077 200.923 C 216.177 199.022 215 196.397 215 193.500 C 215 190.603 216.177 187.978 218.077 186.077 C 219.978 184.177 222.603 183 225.500 183 Z " transform="matrix(0.9988916516304016, -0.04706745594739914, 0.04706745594739914, 0.9988916516304016, -216.3, -145.7)"/>
  <path id="ID0.32396932365372777" fill="#FFFFFF" stroke="none" d="M 225.500 183 C 228.397 183 231.022 184.177 232.923 186.077 C 234.823 187.978 236 190.603 236 193.500 C 236 196.397 234.823 199.022 232.923 200.923 C 231.022 202.823 228.397 204 225.500 204 C 222.603 204 219.978 202.823 218.077 200.923 C 216.177 199.022 215 196.397 215 193.500 C 215 190.603 216.177 187.978 218.077 186.077 C 219.978 184.177 222.603 183 225.500 183 Z " transform="matrix(0.9988916516304016, -0.04706745594739914, 0.04706745594739914, 0.9988916516304016, -202.95, -145.25)"/>
  <path id="ID0.32396932365372777" fill="#FFFFFF" stroke="none" d="M 225.500 183 C 228.397 183 231.022 184.177 232.923 186.077 C 234.823 187.978 236 190.603 236 193.500 C 236 196.397 234.823 199.022 232.923 200.923 C 231.022 202.823 228.397 204 225.500 204 C 222.603 204 219.978 202.823 218.077 200.923 C 216.177 199.022 215 196.397 215 193.500 C 215 190.603 216.177 187.978 218.077 186.077 C 219.978 184.177 222.603 183 225.500 183 Z " transform="matrix(0.9988916516304016, -0.04706745594739914, 0.04706745594739914, 0.9988916516304016, -187.85, -145)"/>
  <path id="ID0.9628620110452175" fill="#000000" stroke="none" d="M 274.750 197 C 275.040 197 275.302 197.118 275.492 197.308 C 275.682 197.498 275.800 197.760 275.800 198.050 C 275.800 198.340 275.682 198.602 275.492 198.792 C 275.302 198.982 275.040 199.100 274.750 199.100 C 274.460 199.100 274.198 198.982 274.008 198.792 C 273.818 198.602 273.700 198.340 273.700 198.050 C 273.700 197.760 273.818 197.498 274.008 197.308 C 274.198 197.118 274.460 197 274.750 197 Z " transform="matrix(1.308072566986084, -0.061635952442884445, 0.061635952442884445, 1.308072566986084, -301.05, -226.65)"/>
  <path id="ID0.32396932365372777" fill="#FFFFFF" stroke="none" d="M 225.500 183 C 228.397 183 231.022 184.177 232.923 186.077 C 234.823 187.978 236 190.603 236 193.500 C 236 196.397 234.823 199.022 232.923 200.923 C 231.022 202.823 228.397 204 225.500 204 C 222.603 204 219.978 202.823 218.077 200.923 C 216.177 199.022 215 196.397 215 193.500 C 215 190.603 216.177 187.978 218.077 186.077 C 219.978 184.177 222.603 183 225.500 183 Z " transform="matrix(0.7848434448242188, -0.03698157146573067, 0.03698157146573067, 0.7848434448242188, -173.7, -110.15)"/>
</svg>