<svg version="1.1" width="153" height="267" viewBox="15 8 153 267" xmlns="http://www.w3.org/2000/svg" xmlns:xlink="http://www.w3.org/1999/xlink">
  <!-- Exported by Scratch - http://scratch.mit.edu/ -->
  <g id="ID0.7659205952659249" transform="matrix(1, 0, 0, 1, -150, -30)">
    <path id="ID0.2150625134818256" fill="#DBDDE1" stroke="none" stroke-linecap="round" d="M 95.950 238.500 L 122.750 239.650 L 129 323 L 112.750 328.150 L 91 323 L 95.950 238.500 Z " transform="matrix(0.5219697952270508, -0.04948366433382034, 0.1791069209575653, 1.8892772197723389, 133.7, -313.9)"/>
    <path id="ID0.2808817606419325" fill="none" stroke="#FF756C" stroke-width="15" stroke-linecap="round" d="M 282.775 181.225 C 321.426 133.279 336.774 129.268 346.850 131.900 C 351.829 135.626 362.432 139.644 363 148 C 363.795 159.955 359.763 175.538 349.225 181.225 C 332.575 189.993 311.889 180.485 294 185 C 288.526 186.403 285.821 198.995 283 198 C 280.264 197.002 279.097 186.517 282.775 181.225 Z " transform="matrix(-0.9275253415107727, -0.3737602233886719, -0.3737602233886719, 0.9275253415107727, 571, 54.25)"/>
    <path id="ID0.2150625134818256" fill="#DBDDE1" stroke="none" stroke-linecap="round" d="M 95.950 238.500 L 122.750 239.650 L 129 323 L 112.750 328.150 L 91 323 L 95.950 238.500 Z " transform="matrix(-0.5195643901824951, -0.0703842043876648, -0.25475677847862244, 1.880570888519287, 363.45, -304.8)"/>
    <path id="ID0.2808817606419325" fill="none" stroke="#FF756C" stroke-width="15" stroke-linecap="round" d="M 325.500 129.450 C 354.314 120.921 360.098 135.306 363 148 C 365.495 159.804 359.767 175.545 349.225 181.225 C 332.676 189.979 311.889 180.485 294 185 C 288.526 186.403 285.819 199.010 283 198 C 280.280 196.981 279.726 185.936 282.775 181.225 C 294.921 162.457 308.622 143.590 325.500 129.450 Z " transform="matrix(0.9417731165885925, -0.33624884486198425, 0.33624884486198425, 0.9417731165885925, -87.05, 44.5)"/>
    <path id="ID0.1823205891996622" fill="#BBBDC0" stroke="none" stroke-linecap="round" d="M 198.250 174.500 C 200.250 174.500 202.063 175.312 203.375 176.625 C 204.688 177.937 205.500 179.750 205.500 181.750 C 205.500 183.750 204.688 185.563 203.375 186.875 C 202.063 188.188 200.250 189 198.250 189 C 196.250 189 194.437 188.188 193.125 186.875 C 191.812 185.563 191 183.750 191 181.750 C 191 179.750 191.812 177.937 193.125 176.625 C 194.437 175.312 196.250 174.500 198.250 174.500 Z " transform="matrix(0.8795499205589294, 0.3544277846813202, -0.3544277846813202, 0.8795499205589294, 128.1, -52.35)"/>
  </g>
</svg>