<svg version="1.1" width="225" height="226" viewBox="-1 0 225 226" xmlns="http://www.w3.org/2000/svg" xmlns:xlink="http://www.w3.org/1999/xlink">
  <!-- Exported by Scratch - http://scratch.mit.edu/ -->
  <g id="ID0.8527598651126027" transform="matrix(1, 0, 0, 1, -130, -63)">
    <path id="ID0.2150625134818256" fill="#DBDDE1" stroke="none" stroke-linecap="round" d="M 95.950 238.500 L 122.750 239.650 L 129 323 L 112.750 328.150 L 91 323 L 95.950 238.500 Z " transform="matrix(0.4656452238559723, -0.24098891019821167, 0.8722628951072693, 1.6854095458984375, -39.3, -237.9)"/>
    <path id="ID0.2150625134818256" fill="#DBDDE1" stroke="none" stroke-linecap="round" d="M 95.950 238.500 L 122.750 239.650 L 129 323 L 112.750 328.150 L 91 323 L 95.950 238.500 Z " transform="matrix(-0.4389699399471283, -0.2867167890071869, -1.0377756357192993, 1.5888580083847046, 561.4, -212.25)"/>
    <path id="ID0.1823205891996622" fill="#BBBDC0" stroke="none" stroke-linecap="round" d="M 198.250 174.500 C 200.250 174.500 202.063 175.312 203.375 176.625 C 204.688 177.937 205.500 179.750 205.500 181.750 C 205.500 183.750 204.688 185.563 203.375 186.875 C 202.063 188.188 200.250 189 198.250 189 C 196.250 189 194.437 188.188 193.125 186.875 C 191.812 185.563 191 183.750 191 181.750 C 191 179.750 191.812 177.937 193.125 176.625 C 194.437 175.312 196.250 174.500 198.250 174.500 Z " transform="matrix(0.9482758641242981, 0, 0, 0.9482758641242981, 51.2, 2.85)"/>
    <path id="ID0.2808817606419325" fill="none" stroke="#FF756C" stroke-width="15" stroke-linecap="round" d="M 325.500 129.450 C 354.314 120.921 360.098 135.306 363 148 C 365.495 159.804 359.767 175.545 349.225 181.225 C 332.676 189.979 311.889 180.485 294 185 C 288.526 186.403 285.819 199.010 283 198 C 280.280 196.981 279.726 185.936 282.775 181.225 C 294.921 162.457 308.622 143.590 325.500 129.450 Z " transform="matrix(-0.9999352693557739, 0.01137083861976862, 0.01137083861976862, 0.9999352693557739, 500.35, -58.7)"/>
    <path id="ID0.2808817606419325" fill="none" stroke="#FF756C" stroke-width="15" stroke-linecap="round" d="M 325.500 129.450 C 354.314 120.921 360.098 135.306 363 148 C 365.495 159.804 359.767 175.545 349.225 181.225 C 332.676 189.979 311.889 180.485 294 185 C 288.526 186.403 285.819 199.010 283 198 C 280.280 196.981 279.726 185.936 282.775 181.225 C 294.921 162.457 308.622 143.590 325.500 129.450 Z " transform="matrix(0.9915681481361389, 0.12958581745624542, -0.12958581745624542, 0.9915681481361389, 5.25, -90.15)"/>
  </g>
</svg>